<svg width="16" height="10" viewBox="0 0 16 10" fill="none" xmlns="http://www.w3.org/2000/svg">
<path d="M15.17 0.829631C15.2745 0.933979 15.3574 1.0579 15.414 1.19432C15.4705 1.33073 15.4996 1.47696 15.4996 1.62463C15.4996 1.77231 15.4705 1.91853 15.414 2.05495C15.3574 2.19136 15.2745 2.31528 15.17 2.41963L8.795 8.79463C8.69065 8.89913 8.56673 8.98203 8.43032 9.03859C8.2939 9.09515 8.14768 9.12426 8 9.12426C7.85233 9.12426 7.7061 9.09515 7.56969 9.03859C7.43327 8.98203 7.30935 8.89913 7.205 8.79463L0.830002 2.41963C0.619155 2.20878 0.500702 1.92281 0.500702 1.62463C0.500702 1.47699 0.529783 1.33079 0.586284 1.19438C0.642785 1.05797 0.725601 0.934032 0.830002 0.829631C0.934403 0.72523 1.05834 0.642416 1.19475 0.585914C1.33116 0.529413 1.47736 0.500332 1.625 0.500332C1.92318 0.500332 2.20915 0.618784 2.42 0.829631L8 6.40813L13.58 0.829631C13.6844 0.725135 13.8083 0.642236 13.9447 0.585675C14.0811 0.529114 14.2273 0.5 14.375 0.5C14.5227 0.5 14.6689 0.529114 14.8053 0.585675C14.9417 0.642236 15.0657 0.725135 15.17 0.829631Z" fill="#A6A9AC"/>
</svg>
