<svg width="12" height="20" viewBox="0 0 12 20" fill="none" xmlns="http://www.w3.org/2000/svg">
<path d="M6.20293 0.56103C6.17593 0.34603 5.82293 0.34603 5.79693 0.56103C4.91393 7.66803 0.398926 9.13303 0.398926 14.073C0.398926 17.126 2.96293 19.6 5.99993 19.6C9.03593 19.6 11.5999 17.125 11.5999 14.073C11.5999 9.13303 7.08593 7.66803 6.20293 0.56103ZM5.34993 8.41803C5.29093 8.63703 5.22693 8.86203 5.16093 9.09603C4.75993 10.52 4.30493 12.135 4.30493 14.002C4.30493 15.014 3.70693 15.373 3.14893 15.373C2.99646 15.3724 2.84562 15.3417 2.70501 15.2827C2.5644 15.2238 2.43678 15.1377 2.32944 15.0294C2.22209 14.9212 2.13712 14.7928 2.07939 14.6517C2.02165 14.5106 1.99227 14.3595 1.99293 14.207C1.99293 12 3.05493 10.558 3.99293 9.28703C4.28793 8.88903 4.56493 8.51203 4.78993 8.13703C4.89293 7.96503 5.16993 7.97303 5.29593 8.14303C5.35493 8.22303 5.37493 8.32503 5.34993 8.41803Z" fill="#748993"/>
</svg>
