<svg width="20" height="20" viewBox="0 0 20 20" fill="none" xmlns="http://www.w3.org/2000/svg">
<g clip-path="url(#clip0_6_104)">
<path d="M16.2021 -2.1035e-06L9.27693 -2.70892e-06C8.54404 0.0365306 8.01484 0.629798 8.00604 1.28163L8.00604 4.38342C7.32514 5.27001 6.38016 5.89836 5.69588 6.75283C5.45534 7.0544 5.18789 7.28775 4.89351 7.45288C3.83883 7.98978 2.61093 7.66446 1.77019 8.42756C1.11216 9.96103 2.03271 11.7981 3.47724 12.3155C4.65691 12.7223 5.83334 12.4497 6.87521 11.944C6.87218 13.7749 6.88701 15.6058 6.89674 17.4367C7.00803 18.9273 8.01159 19.9901 9.43846 20C10.8764 19.9959 11.9221 18.7563 11.9479 17.4367L11.9479 15.2827C12.3715 15.2109 12.7556 15.0709 13.1003 14.8627C13.986 14.9833 14.8544 14.7072 15.4805 14.1734C20.593 13.8805 17.5598 7.1827 17.4837 4.67423L17.4837 1.28165C17.4488 0.543617 16.8572 0.00881563 16.2021 -2.1035e-06ZM16.2021 4.62036C16.2452 6.62745 19.2797 13.4855 14.9312 12.8271C14.54 13.5529 13.4931 13.8321 12.831 13.3872C12.1643 14.0633 11.3266 14.2558 10.6663 13.6026C10.6663 14.2488 10.6627 14.8878 10.6555 15.5197C10.6483 16.1515 10.6447 16.7905 10.6447 17.4367C10.6292 18.1762 10.0866 18.6888 9.43847 18.6968C8.67223 18.6799 8.18621 18.0982 8.17839 17.4367C8.17826 14.9303 8.15713 12.4595 8.15686 10.1346C6.47748 10.3439 4.19711 12.3474 2.87414 10.3016C2.71328 9.97405 2.64499 9.71213 2.70719 9.36998C2.73592 9.31255 2.76463 9.28023 2.79336 9.27305C2.82208 9.26586 2.86874 9.25512 2.93336 9.24075C4.26453 9.02335 5.59553 8.8204 6.47671 7.7868C7.34909 6.64908 8.72253 5.97823 9.27693 4.67427L9.27693 4.62041L16.2021 4.62042L16.2021 4.62036Z" fill="#B056C3"/>
</g>
<defs>
<clipPath id="clip0_6_104">
<rect width="20" height="20" fill="white" transform="translate(20 20) rotate(-180)"/>
</clipPath>
</defs>
</svg>
