<svg width="20" height="20" viewBox="0 0 20 20" fill="none" xmlns="http://www.w3.org/2000/svg">
<path d="M17.5057 6.8514C17.5086 6.27327 17.3505 5.70574 17.0491 5.21237C16.7477 4.71901 16.3149 4.31929 15.7992 4.05798C15.2835 3.79667 14.7052 3.68409 14.1291 3.73284C13.553 3.7816 13.0019 3.98978 12.5374 4.33404C12.073 4.67831 11.7135 5.14508 11.4993 5.68208C11.2852 6.21908 11.2246 6.80511 11.3247 7.37453C11.4248 7.94395 11.6813 8.47433 12.0657 8.90614C12.4501 9.33803 12.9471 9.65433 13.5011 9.81966C13.2966 10.2354 12.9801 10.5859 12.5873 10.8316C12.1945 11.0774 11.7411 11.2087 11.2777 11.211H8.7865C7.86426 11.2142 6.97623 11.5606 6.29531 12.1826V6.16507C7.05141 6.01074 7.72328 5.58114 8.18064 4.95959C8.63803 4.33804 8.84829 3.5688 8.77073 2.80101C8.69317 2.03322 8.33329 1.32158 7.76084 0.80406C7.18841 0.286538 6.44421 0 5.67251 0C4.90081 0 4.15661 0.286538 3.58416 0.80406C3.01173 1.32158 2.65184 2.03322 2.57428 2.80101C2.49671 3.5688 2.707 4.33804 3.16437 4.95959C3.62174 5.58114 4.29361 6.01074 5.04971 6.16507V13.7632C4.29503 13.9075 3.61924 14.3231 3.14982 14.9313C2.68041 15.5397 2.44981 16.2988 2.50152 17.0654C2.55324 17.832 2.88369 18.5532 3.43055 19.0929C3.97741 19.6326 4.70288 19.9537 5.47011 19.9954C6.23734 20.037 6.99331 19.7965 7.59541 19.3192C8.19753 18.8419 8.60415 18.1607 8.73859 17.4042C8.87303 16.6476 8.72605 15.8681 8.32527 15.2125C7.92452 14.5569 7.29772 14.0706 6.56311 13.8454C6.76801 13.4301 7.0846 13.0802 7.47735 12.8349C7.87009 12.5895 8.32344 12.4586 8.7865 12.4566H11.2777C12.055 12.453 12.8117 12.2071 13.4426 11.7532C14.0736 11.2993 14.5472 10.66 14.7978 9.92429C15.5444 9.82613 16.2301 9.46068 16.728 8.89567C17.2259 8.33067 17.5022 7.60444 17.5057 6.8514ZM3.80411 3.1146C3.80411 2.74507 3.91369 2.38384 4.11899 2.07658C4.3243 1.76932 4.6161 1.52985 4.9575 1.38843C5.29891 1.24702 5.67458 1.21002 6.03701 1.28211C6.39945 1.3542 6.73236 1.53215 6.99366 1.79345C7.25497 2.05475 7.43291 2.38766 7.50501 2.7501C7.57709 3.11254 7.5401 3.48821 7.39868 3.82961C7.25727 4.17101 7.01779 4.46282 6.71053 4.66812C6.40328 4.87342 6.04204 4.983 5.67251 4.983C5.17698 4.983 4.70175 4.78615 4.35135 4.43576C4.00096 4.08537 3.80411 3.61014 3.80411 3.1146ZM7.54091 16.8162C7.54091 17.1857 7.43133 17.5469 7.22603 17.8542C7.02072 18.1614 6.72892 18.4009 6.38751 18.5423C6.0461 18.6837 5.67043 18.7208 5.308 18.6487C4.94557 18.5766 4.61265 18.3987 4.35135 18.1373C4.09005 17.876 3.9121 17.5431 3.84001 17.1807C3.76792 16.8183 3.80492 16.4426 3.94633 16.1012C4.08775 15.7597 4.32723 15.4679 4.63448 15.2627C4.94174 15.0574 5.30297 14.9478 5.67251 14.9478C6.16804 14.9478 6.64327 15.1447 6.99366 15.495C7.34406 15.8454 7.54091 16.3207 7.54091 16.8162ZM14.3917 8.71979C14.0222 8.71979 13.6609 8.61018 13.3537 8.40491C13.0464 8.19962 12.807 7.90781 12.6655 7.5664C12.5241 7.225 12.4871 6.84933 12.5592 6.48689C12.6312 6.12446 12.8092 5.79154 13.0705 5.53024C13.3319 5.26894 13.6648 5.09099 14.0272 5.0189C14.3896 4.94681 14.7653 4.98381 15.1067 5.12522C15.4481 5.26664 15.7399 5.50612 15.9452 5.81337C16.1505 6.12063 16.2601 6.48186 16.2601 6.8514C16.2601 7.34693 16.0632 7.82217 15.7129 8.17255C15.3624 8.52291 14.8872 8.71979 14.3917 8.71979Z" fill="white"/>
</svg>
