<svg width="24" height="24" viewBox="0 0 24 24" fill="none" xmlns="http://www.w3.org/2000/svg">
<path d="M19.5874 15.7819C19.5461 15.7819 19.513 15.7741 19.4717 15.7662L18.3482 15.452L17.2246 15.7662C17.0759 15.8055 16.9272 15.7662 16.8198 15.6641C16.7124 15.562 16.6711 15.4128 16.7124 15.2792L17.0429 14.2109L16.7124 13.1426C16.6711 13.0012 16.7124 12.852 16.8198 12.7577C16.9272 12.6635 17.0842 12.6163 17.2246 12.6556L18.3482 12.9698L19.4717 12.6556C19.6121 12.6163 19.7691 12.6556 19.8765 12.7577C19.9839 12.8598 20.0252 13.0091 19.9839 13.1426L19.6535 14.2109L19.9839 15.2792C20.0252 15.4206 19.9839 15.5699 19.8765 15.6641C19.8022 15.7427 19.6948 15.7819 19.5874 15.7819ZM18.3482 14.6508C18.3895 14.6508 18.4225 14.6587 18.4638 14.6665L18.976 14.8079L18.8273 14.3209C18.8025 14.2502 18.8025 14.1716 18.8273 14.1009L18.976 13.6139L18.4638 13.7553C18.3895 13.7789 18.3069 13.7789 18.2325 13.7553L17.7203 13.6139L17.869 14.1009C17.8938 14.1716 17.8938 14.2502 17.869 14.3209L17.7203 14.8079L18.2325 14.6665C18.2738 14.6587 18.3069 14.6508 18.3482 14.6508Z" fill="#333333"/>
<path d="M7.19466 11.8542C7.15336 11.8542 7.12031 11.8464 7.07901 11.8385L5.95546 11.5243L4.83192 11.8385C4.68321 11.8778 4.53451 11.8385 4.42711 11.7364C4.31971 11.6343 4.27841 11.485 4.31971 11.3515L4.65017 10.2832L4.31971 9.21489C4.27841 9.0735 4.31971 8.92425 4.42711 8.82999C4.53451 8.73573 4.69147 8.6886 4.83192 8.72787L5.95546 9.04208L7.07901 8.72787C7.21945 8.6886 7.37641 8.72787 7.48381 8.82999C7.59121 8.93211 7.63252 9.08135 7.59121 9.21489L7.26075 10.2832L7.59121 11.3515C7.63252 11.4929 7.59121 11.6421 7.48381 11.7364C7.40946 11.8149 7.30206 11.8542 7.19466 11.8542ZM5.95546 10.7231C5.99677 10.7231 6.02981 10.7309 6.07112 10.7388L6.58332 10.8802L6.43462 10.3932C6.40984 10.3225 6.40984 10.2439 6.43462 10.1732L6.58332 9.6862L6.07112 9.82759C5.99677 9.85115 5.91415 9.85115 5.8398 9.82759L5.3276 9.6862L5.4763 10.1732C5.50109 10.2439 5.50109 10.3225 5.4763 10.3932L5.3276 10.8802L5.8398 10.7388C5.88111 10.7309 5.91415 10.7231 5.95546 10.7231Z" fill="#333333"/>
<path d="M10.4998 7.14132C10.4585 7.14132 10.4255 7.13346 10.3842 7.12561L9.26064 6.8114L8.13709 7.12561C7.98839 7.16488 7.83142 7.12561 7.73229 7.02349C7.62489 6.92137 7.58358 6.77998 7.62489 6.63859L7.95534 5.5703L7.62489 4.502C7.58358 4.36061 7.62489 4.21136 7.73229 4.1171C7.83968 4.01498 7.99665 3.97571 8.13709 4.01498L9.26064 4.32919L10.3842 4.01498C10.5329 3.97571 10.6816 4.01498 10.789 4.1171C10.8964 4.21922 10.9377 4.36846 10.8964 4.502L10.5659 5.5703L10.8964 6.63859C10.9377 6.77998 10.8964 6.92923 10.789 7.02349C10.7146 7.10204 10.6072 7.14132 10.4998 7.14132ZM9.26064 6.01018C9.30194 6.01018 9.33499 6.01804 9.3763 6.02589L9.8885 6.16728L9.7398 5.68027C9.71501 5.60957 9.71501 5.53102 9.7398 5.46032L9.8885 4.97331L9.3763 5.1147C9.30194 5.13826 9.21933 5.13826 9.14498 5.1147L8.63277 4.97331L8.78148 5.46032C8.80626 5.53102 8.80626 5.60957 8.78148 5.68027L8.63277 6.16728L9.14498 6.02589C9.18628 6.01804 9.21933 6.01018 9.26064 6.01018Z" fill="#333333"/>
<path d="M6.37101 20C5.75967 20 5.15659 19.7801 4.69395 19.3402C4.24784 18.916 4 18.3504 4 17.7456C4 17.1408 4.24784 16.5752 4.69395 16.151L15.4337 5.93937C16.359 5.0596 17.8625 5.0596 18.7878 5.93937C19.2339 6.36355 19.4818 6.92911 19.4818 7.53396C19.4818 8.1388 19.2339 8.70437 18.7878 9.12854L8.04806 19.3402C7.58543 19.7801 6.98235 20 6.37101 20ZM17.1108 6.45781C16.8216 6.45781 16.5325 6.55992 16.3094 6.77201L5.56966 16.9837C5.35486 17.1879 5.2392 17.455 5.2392 17.7456C5.2392 18.0362 5.35486 18.3033 5.56966 18.5075C6.00751 18.9239 6.73451 18.9239 7.17236 18.5075L17.9121 8.2959C18.1269 8.09167 18.2426 7.8246 18.2426 7.53396C18.2426 7.24332 18.1269 6.97624 17.9121 6.77201C17.6891 6.55992 17.3999 6.45781 17.1108 6.45781Z" fill="#333333"/>
</svg>
