<svg width="22" height="22" viewBox="0 0 22 22" fill="none" xmlns="http://www.w3.org/2000/svg">
<path d="M11 0C4.95 0 0 4.95 0 11C0 17.05 4.95 22 11 22C17.05 22 22 17.05 22 11C22 4.95 17.05 0 11 0ZM11 20.9C5.53667 20.9 1.1 16.4633 1.1 11C1.1 5.53667 5.53667 1.1 11 1.1C16.4633 1.1 20.9 5.53667 20.9 11C20.9 16.4633 16.4633 20.9 11 20.9ZM16.28 6.49L11.77 11L16.28 15.51C16.5 15.73 16.5 16.06 16.28 16.28C16.17 16.39 16.0233 16.4267 15.8767 16.4267C15.73 16.4267 15.5833 16.39 15.4733 16.28L11 11.77L6.49 16.28C6.38 16.39 6.23333 16.4267 6.08667 16.4267C5.94 16.4267 5.79333 16.39 5.68333 16.28C5.46333 16.06 5.46333 15.73 5.68333 15.51L10.23 11L5.72 6.49C5.5 6.27 5.5 5.94 5.72 5.72C5.94 5.5 6.27 5.5 6.49 5.72L11 10.23L15.51 5.72C15.73 5.5 16.06 5.5 16.28 5.72C16.5 5.94 16.5 6.27 16.28 6.49Z" fill="#BABABA"/>
</svg>
