<svg width="24" height="24" viewBox="0 0 24 24" fill="none" xmlns="http://www.w3.org/2000/svg">
<path d="M19.3661 13.6252L17.6504 14.9955V10.3819L19.3505 9.02401L19.3661 13.6252ZM6.93174 8.54637L18.6758 8.56607L17.0767 9.84318H5.30807L6.93174 8.54637ZM19.7667 7.82078L19.7661 7.82078L6.77537 7.8L6.7744 7.8C6.67668 7.80032 6.5834 7.82781 6.50241 7.88586L6.50226 7.88564L6.49412 7.89214L3.93587 9.93549L3.93564 9.93521L3.92677 9.94321C3.85178 10.0108 3.80138 10.103 3.80002 10.214L3.8 10.214V10.2164V15.8268H3.79999L3.80001 15.8289C3.80115 15.9411 3.85275 16.0354 3.9359 16.1009C4.0167 16.1663 4.11265 16.1993 4.2155 16.2H4.2168L17.2335 16.2L17.2348 16.2C17.3359 16.1993 17.4323 16.1669 17.5107 16.097L19.9887 14.1177C20.0159 14.1048 20.0414 14.0874 20.0639 14.0653C20.1426 14.0043 20.1991 13.9141 20.2 13.799L20.2 13.7968L20.1827 8.19329L20.1827 8.19146C20.1812 8.06985 20.1181 7.97568 20.0367 7.91182L19.9644 7.85503L19.9485 7.85819C19.891 7.8326 19.8291 7.82108 19.7667 7.82078ZM16.8167 15.4536H4.63358V10.5895H16.8167V15.4536Z" fill="#333333" stroke="#333333" stroke-width="0.4"/>
</svg>
