<svg width="20" height="20" viewBox="0 0 20 20" fill="none" xmlns="http://www.w3.org/2000/svg">
<path d="M10 15C10.2472 15 10.4889 15.0733 10.6945 15.2107C10.9 15.348 11.0602 15.5432 11.1548 15.7716C11.2495 16.0001 11.2742 16.2514 11.226 16.4939C11.1778 16.7363 11.0587 16.9591 10.8839 17.1339C10.7091 17.3087 10.4863 17.4277 10.2439 17.476C10.0014 17.5242 9.75005 17.4995 9.52165 17.4048C9.29324 17.3102 9.09801 17.15 8.96066 16.9445C8.82331 16.7389 8.75 16.4972 8.75 16.25C8.75 15.9185 8.8817 15.6005 9.11612 15.3661C9.35054 15.1317 9.66848 15 10 15Z" fill="#302D4A" fill-opacity="0.8"/>
<path d="M10 8.75C10.2472 8.75 10.4889 8.82331 10.6945 8.96066C10.9 9.09801 11.0602 9.29324 11.1548 9.52164C11.2495 9.75005 11.2742 10.0014 11.226 10.2439C11.1778 10.4863 11.0587 10.7091 10.8839 10.8839C10.7091 11.0587 10.4863 11.1777 10.2439 11.226C10.0014 11.2742 9.75005 11.2495 9.52165 11.1548C9.29324 11.0602 9.09801 10.9 8.96066 10.6945C8.82331 10.4889 8.75 10.2472 8.75 10C8.75 9.66848 8.8817 9.35054 9.11612 9.11612C9.35054 8.8817 9.66848 8.75 10 8.75Z" fill="#302D4A" fill-opacity="0.8"/>
<path d="M10 2.5C10.2472 2.5 10.4889 2.57331 10.6945 2.71066C10.9 2.84801 11.0602 3.04324 11.1548 3.27164C11.2495 3.50005 11.2742 3.75139 11.226 3.99386C11.1778 4.23634 11.0587 4.45907 10.8839 4.63388C10.7091 4.8087 10.4863 4.92775 10.2439 4.97598C10.0014 5.02421 9.75005 4.99946 9.52165 4.90485C9.29324 4.81024 9.09801 4.65002 8.96066 4.44446C8.82331 4.2389 8.75 3.99723 8.75 3.75C8.75 3.41848 8.8817 3.10054 9.11612 2.86612C9.35054 2.6317 9.66848 2.5 10 2.5Z" fill="#302D4A" fill-opacity="0.8"/>
</svg>
