<svg width="24" height="24" viewBox="0 0 24 24" fill="none" xmlns="http://www.w3.org/2000/svg">
<circle cx="12" cy="12" r="12" fill="white"/>
<path d="M6 18H18M13.1896 7.54114C13.1896 7.54114 13.1896 8.63089 14.2794 9.72064C15.3691 10.8104 16.4589 10.8104 16.4589 10.8104M8.87975 15.992L11.1682 15.6651C11.4983 15.618 11.8042 15.465 12.04 15.2292L17.5486 9.72064C18.1505 9.11879 18.1505 8.14299 17.5486 7.54114L16.4589 6.45139C15.857 5.84954 14.8812 5.84954 14.2794 6.45139L8.77078 11.96C8.53499 12.1958 8.38203 12.5017 8.33488 12.8318L8.00795 15.1202C7.9353 15.6288 8.3712 16.0647 8.87975 15.992Z" stroke="#707070" stroke-width="1.5" stroke-linecap="round"/>
</svg>
