<svg width="24" height="24" viewBox="0 0 24 24" fill="none" xmlns="http://www.w3.org/2000/svg">
<path fill-rule="evenodd" clip-rule="evenodd" d="M10.3207 6.07735C10.237 6.1418 10.232 6.16625 10.2153 6.59687L10.1978 7.04873L9.88159 7.09307C4.10736 7.90269 1.22381 12.0078 4.16824 15.2268C6.24719 17.4995 10.3742 18.5093 14.4835 17.7507C17.4081 17.2108 19.5342 15.671 20.0183 13.742L20.0648 13.5568H20.4243C20.7599 13.5568 20.7911 13.5507 20.8919 13.4655L21 13.3742L20.9989 12.3455C20.9975 11.0726 21.0223 11.1229 20.3956 11.1229H20.0324L19.8876 10.8142C18.9709 8.85999 16.2693 7.3759 13.0532 7.05988L12.6392 7.01921L12.639 6.69888C12.6388 6.31214 12.5961 6.13993 12.4818 6.06469C12.3396 5.97114 10.4442 5.98226 10.3207 6.07735ZM12.0069 7.2251V7.80713H11.4097H10.8125V7.2251V6.64308H11.4097H12.0069V7.2251ZM13.2961 7.72C16.1693 8.09398 18.4426 9.32113 19.2568 10.9377L19.3501 11.1229H19.0837C18.5852 11.1229 18.5761 11.1447 18.5761 12.3335C18.5761 13.5338 18.5866 13.5568 19.1343 13.5568H19.415L19.3341 13.7956C18.0044 17.7214 9.17325 18.6787 5.15221 15.3329C1.80938 12.5515 4.26513 8.55438 9.81808 7.73841C10.3125 7.2 10.2151 7.66035 10.2164 7.97468C10.2183 8.44397 10.2135 8.44206 11.4057 8.44206C12.6075 8.44206 12.6028 8.444 12.6323 7.93941L12.6483 7.66603H12.7649C12.829 7.66603 13.0681 7.6903 13.2961 7.72ZM20.4028 12.3399V12.9219H19.8056H19.2084V12.3399V11.7578H19.8056H20.4028V12.3399Z" stroke="black" stroke-width="0.7"/>
<path fill-rule="evenodd" clip-rule="evenodd" d="M11.3614 11.2483C11.2482 11.3419 11.1921 11.4969 11.1921 11.7152V11.9216L10.9595 11.9475C10.297 12.0212 10.2712 12.774 10.9312 12.774H11.1817L11.2005 13.0532C11.2503 13.7961 11.9707 13.7559 11.9707 13.0103V12.774H12.222C12.6115 12.774 12.7958 12.5213 12.6488 12.189C12.5755 12.0231 12.39 11.9354 12.1112 11.9349C11.9733 11.9346 11.9707 11.9307 11.9707 11.7225C11.9707 11.4887 11.8826 11.2624 11.7741 11.2175C11.6602 11.1704 11.4352 11.1872 11.3614 11.2483Z" fill="black"/>
</svg>
