<svg width="24" height="24" viewBox="0 0 24 24" fill="none" xmlns="http://www.w3.org/2000/svg">
<rect x="12.5" y="11.7" width="3" height="1.4" stroke="#333333"/>
<rect x="8" y="10.4" width="4" height="2.4" fill="#333333"/>
<path d="M8 6H16M18 8V16M16 18H8M6 16V8" stroke="#333333" stroke-width="1.5" stroke-linecap="round" stroke-linejoin="round"/>
<path d="M4 19V17.8C4 17.2477 4.44772 16.8 5 16.8H6.2C6.75228 16.8 7.2 17.2477 7.2 17.8V19C7.2 19.5523 6.75228 20 6.2 20H5C4.44772 20 4 19.5523 4 19Z" stroke="#333333" stroke-width="1.5" stroke-linecap="round" stroke-linejoin="round"/>
<path d="M16.8 19V17.8C16.8 17.2477 17.2478 16.8 17.8 16.8H19C19.5523 16.8 20 17.2477 20 17.8V19C20 19.5523 19.5523 20 19 20H17.8C17.2478 20 16.8 19.5523 16.8 19Z" stroke="#333333" stroke-width="1.5" stroke-linecap="round" stroke-linejoin="round"/>
<path d="M16.8 6.2V5C16.8 4.44772 17.2478 4 17.8 4H19C19.5523 4 20 4.44772 20 5V6.2C20 6.75228 19.5523 7.2 19 7.2H17.8C17.2478 7.2 16.8 6.75228 16.8 6.2Z" stroke="#333333" stroke-width="1.5" stroke-linecap="round" stroke-linejoin="round"/>
<path d="M4 6.2V5C4 4.44772 4.44772 4 5 4H6.2C6.75228 4 7.2 4.44772 7.2 5V6.2C7.2 6.75228 6.75228 7.2 6.2 7.2H5C4.44772 7.2 4 6.75228 4 6.2Z" stroke="#333333" stroke-width="1.5" stroke-linecap="round" stroke-linejoin="round"/>
</svg>
