<svg width="26" height="26" viewBox="0 0 26 26" fill="none" xmlns="http://www.w3.org/2000/svg">
<path d="M18.2642 12.3117C20.8383 12.3117 22.9249 10.225 22.9249 7.65095C22.9249 5.07691 20.8383 2.99023 18.2642 2.99023C15.6902 2.99023 13.6035 5.07691 13.6035 7.65095C13.6035 10.225 15.6902 12.3117 18.2642 12.3117Z" fill="#555555" stroke="#555555" stroke-width="2" stroke-linecap="round" stroke-linejoin="round"/>
<path d="M6.87158 16.9727C8.87361 16.9727 10.4966 15.3497 10.4966 13.3477C10.4966 11.3456 8.87361 9.72266 6.87158 9.72266C4.86955 9.72266 3.24658 11.3456 3.24658 13.3477C3.24658 15.3497 4.86955 16.9727 6.87158 16.9727Z" fill="#555555" stroke="#555555" stroke-width="2" stroke-linecap="round" stroke-linejoin="round"/>
<path d="M15.6752 22.1512C17.1052 22.1512 18.2645 20.992 18.2645 19.5619C18.2645 18.1319 17.1052 16.9727 15.6752 16.9727C14.2452 16.9727 13.0859 18.1319 13.0859 19.5619C13.0859 20.992 14.2452 22.1512 15.6752 22.1512Z" fill="#555555" stroke="#555555" stroke-width="2" stroke-linecap="round" stroke-linejoin="round"/>
</svg>
