<svg width="28" height="26" viewBox="0 0 28 26" fill="none" xmlns="http://www.w3.org/2000/svg">
<path d="M13.5095 0.355572C12.0291 0.618343 10.6127 1.49639 9.68975 2.71411C9.28598 3.24606 8.81171 4.2651 8.63225 4.96369C8.43357 5.76482 8.43357 7.22609 8.63225 7.95672C8.93348 9.0719 9.4462 10.0268 10.164 10.8216L10.4781 11.1677L8.92707 13.7057L7.36967 16.2436L6.86976 16.25C6.24808 16.2565 5.79945 16.3975 5.37004 16.7243C4.07541 17.6985 3.94082 19.5251 5.08163 20.6723C6.58135 22.1656 9.02961 21.3773 9.42057 19.2751C9.51029 18.7752 9.43979 18.3138 9.18984 17.769C9.06807 17.4934 9.04884 17.3909 9.10011 17.2947C9.13857 17.2242 10.0743 15.6925 11.1831 13.8915C12.2918 12.0906 13.1955 10.6165 13.1955 10.6037C13.1955 10.5973 12.984 10.4627 12.7341 10.3088C12.1765 9.98199 11.4522 9.27058 11.151 8.75785C10.6511 7.91186 10.4396 6.90563 10.5678 5.96991C10.7024 4.97651 11.0357 4.27151 11.715 3.56651C13.1827 2.04116 15.4579 1.90016 17.214 3.22683C17.9574 3.79083 18.5855 4.77142 18.8098 5.73278C18.9765 6.45059 18.9124 7.50809 18.656 8.18104L18.4638 8.71299L18.8227 8.92449C19.643 9.41799 20.1301 9.68717 20.1557 9.66153C20.2391 9.57821 20.5852 8.70658 20.6941 8.31563C21.1107 6.77104 20.9633 5.2585 20.2455 3.81006C18.9957 1.27207 16.2398 -0.144335 13.5095 0.355572Z" fill="#555555" stroke="#555555" stroke-width="0.133333"/>
<path d="M13.9645 3.99593C13.2338 4.19461 12.4968 4.79706 12.2276 5.42515C11.529 7.04024 12.625 8.87964 14.3554 9.01423L14.8297 9.05268L16.5601 12.2508C17.5151 14.0133 18.3098 15.481 18.329 15.513C18.3483 15.5515 18.6238 15.4425 18.9699 15.2567C20.1684 14.6222 21.3221 14.526 22.5654 14.9554C23.2063 15.1797 23.6614 15.4746 24.1933 16.0001C25.2124 17.0063 25.629 18.4676 25.2957 19.8648C25.0457 20.9415 24.1421 22.0503 23.1294 22.5502C22.4052 22.9027 21.8861 23.0244 21.1426 23.0244C19.7583 23.018 18.5149 22.4348 17.6881 21.3965L17.3997 21.0376L16.6306 21.4863C16.2012 21.7298 15.8295 21.9541 15.7975 21.9862C15.727 22.0503 15.8551 22.2554 16.323 22.8322C17.0472 23.7294 18.2137 24.4793 19.4442 24.8382C20.162 25.0433 21.4438 25.1202 22.2129 24.992C25.6097 24.4473 27.9747 21.1979 27.3914 17.8716C27.212 16.8205 26.8467 15.9809 26.2058 15.1349C25.3598 14.0069 24.1485 13.2122 22.7128 12.8404C21.7002 12.5777 20.4376 12.6033 19.316 12.9109C19.2071 12.9366 19.0276 12.6482 17.906 10.5588L16.6178 8.16823L16.8357 7.81573C17.1434 7.2966 17.2587 6.85437 17.2139 6.30319C17.0985 4.73938 15.4642 3.58575 13.9645 3.99593Z" fill="#555555" stroke="#555555" stroke-width="0.133333"/>
<path d="M5.86976 12.6612C4.54309 12.8983 3.39586 13.5136 2.45373 14.4878C-0.0073477 17.0386 0.0695611 21.1019 2.62678 23.4733C3.51123 24.3 4.70331 24.8769 5.88899 25.0627C6.55553 25.1653 7.71557 25.1076 8.38852 24.9281C9.72802 24.582 11.0162 23.736 11.8238 22.6657C12.2276 22.1274 12.7787 20.9737 12.9261 20.3457L13.0479 19.8329L15.8359 19.8137L18.6238 19.8009L18.7456 20.0701C18.8097 20.2239 19.0083 20.4995 19.1878 20.6917C20.4183 22.0056 22.5526 21.6595 23.3665 20.006C23.5972 19.5381 23.61 19.4932 23.61 18.878C23.61 18.2819 23.5908 18.1922 23.405 17.8013C22.6231 16.1477 20.4824 15.8016 19.2455 17.1219C19.0724 17.3078 18.8866 17.5321 18.8289 17.6218L18.7263 17.782L14.9194 17.8141L11.1124 17.8461L11.0739 18.7754C11.0419 19.4997 11.0034 19.7881 10.9009 20.0829C10.6573 20.743 10.3048 21.2878 9.79852 21.7941C9.39475 22.1979 9.19607 22.3389 8.70257 22.576C7.92066 22.9477 7.54253 23.0375 6.72217 23.031C6.16458 23.0246 5.95949 22.9926 5.53649 22.8516C4.26109 22.4158 3.31896 21.4672 2.92159 20.2175C2.80623 19.8393 2.78059 19.6214 2.78059 18.8716C2.78059 18.064 2.79982 17.9294 2.95364 17.5064C3.21 16.8014 3.492 16.3656 4.06882 15.7824C4.49822 15.353 4.6969 15.212 5.1904 14.9684C5.57494 14.7826 5.95949 14.648 6.26072 14.5967L6.72217 14.5198V13.7379C6.72217 13.3085 6.70294 12.8663 6.68371 12.7573C6.63885 12.5266 6.61962 12.5266 5.86976 12.6612Z" fill="#555555" stroke="#555555" stroke-width="0.133333"/>
</svg>
