<svg width="26" height="26" viewBox="0 0 26 26" fill="none" xmlns="http://www.w3.org/2000/svg">
<path d="M5.71523 14.8364C5.30742 14.6395 4.85222 14.5257 4.36984 14.5257C2.65664 14.5257 1.2627 15.9196 1.2627 17.6328C1.2627 19.3459 2.65664 20.74 4.36984 20.74C5.44491 20.74 6.39375 20.1908 6.95187 19.3585L9.88696 20.8277C9.83647 21.0496 9.80734 21.2798 9.80734 21.5167C9.80734 23.2299 11.2013 24.6239 12.9145 24.6239C14.6277 24.6239 16.0216 23.2299 16.0216 21.5167C16.0216 20.8728 15.8247 20.2742 15.4876 19.7775L19.6119 15.4652C20.1293 15.8489 20.767 16.0792 21.4591 16.0792C23.1722 16.0792 24.5663 14.6853 24.5663 12.9721C24.5663 11.2589 23.1722 9.86496 21.4591 9.86496C20.7422 9.86496 20.0834 10.1112 19.5568 10.5206L15.366 6.3298C15.7754 5.80314 16.0216 5.14443 16.0216 4.42746C16.0216 2.71425 14.6277 1.32031 12.9145 1.32031C11.2013 1.32031 9.80734 2.71425 9.80734 4.42746C9.80734 4.6636 9.83608 4.89314 9.88657 5.11452L7.13209 6.11813C6.61553 5.11569 5.57269 4.42746 4.36984 4.42746C2.65664 4.42746 1.2627 5.8214 1.2627 7.5346C1.2627 9.2478 2.65664 10.6417 4.36984 10.6417C4.81183 10.6417 5.23168 10.5478 5.6127 10.3804L7.04237 12.7864L5.71523 14.8364ZM4.36984 19.9632C3.08465 19.9632 2.03948 18.9181 2.03948 17.6328C2.03948 16.3475 3.08465 15.3025 4.36984 15.3025C5.65503 15.3025 6.7002 16.3475 6.7002 17.6328C6.7002 18.9181 5.65503 19.9632 4.36984 19.9632ZM7.29793 18.6625C7.41173 18.3397 7.47698 17.994 7.47698 17.6328C7.47698 16.68 7.04509 15.8272 6.36812 15.257L7.48514 13.5318L10.8529 19.1988C10.5694 19.4513 10.3321 19.7534 10.1561 20.0932L7.29793 18.6625ZM12.9145 7.5346C13.6315 7.5346 14.2902 7.28836 14.8168 6.87899L19.0079 11.0701C18.7567 11.3933 18.5687 11.7665 18.4603 12.1728L16.0205 11.8372C16.0201 11.8271 16.0216 11.817 16.0216 11.8069C16.0216 10.0937 14.6277 8.69978 12.9145 8.69978C11.8394 8.69978 10.8902 9.24896 10.3324 10.0813L9.86909 9.84981L11.5695 7.22388C11.9769 7.4208 12.4321 7.5346 12.9145 7.5346ZM13.3029 18.4365V14.8869C14.5652 14.7284 15.5921 13.811 15.9137 12.6062L18.3535 12.9418C18.3535 12.9519 18.352 12.962 18.352 12.9721C18.352 13.7139 18.6138 14.3948 19.0491 14.9296L14.971 19.1938C14.5139 18.7887 13.9387 18.5165 13.3029 18.4365ZM12.9145 9.47656C14.1997 9.47656 15.2448 10.5217 15.2448 11.8069C15.2448 13.0921 14.1997 14.1373 12.9145 14.1373C11.6293 14.1373 10.5841 13.0921 10.5841 11.8069C10.5841 10.5217 11.6293 9.47656 12.9145 9.47656ZM9.98639 10.7773C9.87259 11.1 9.80734 11.4457 9.80734 11.8069C9.80734 13.3885 10.9958 14.695 12.5261 14.8873V18.4368C12.1579 18.4829 11.8103 18.5934 11.4937 18.7568L7.95626 12.8039L9.44419 10.5062L9.98639 10.7773ZM12.9145 23.8471C11.6293 23.8471 10.5841 22.802 10.5841 21.5167C10.5841 20.2315 11.6293 19.1864 12.9145 19.1864C14.1997 19.1864 15.2448 20.2315 15.2448 21.5167C15.2448 22.802 14.1997 23.8471 12.9145 23.8471ZM21.4591 10.6417C22.7444 10.6417 23.7895 11.6869 23.7895 12.9721C23.7895 14.2573 22.7444 15.3025 21.4591 15.3025C20.1739 15.3025 19.1288 14.2573 19.1288 12.9721C19.1288 11.6869 20.1739 10.6417 21.4591 10.6417ZM12.9145 2.0971C14.1997 2.0971 15.2448 3.14226 15.2448 4.42746C15.2448 5.71265 14.1997 6.75781 12.9145 6.75781C11.6293 6.75781 10.5841 5.71265 10.5841 4.42746C10.5841 3.14226 11.6293 2.0971 12.9145 2.0971ZM10.1522 5.84392C10.3422 6.21251 10.602 6.53837 10.9162 6.80325L9.16999 9.50025L7.29793 8.56423C7.41173 8.24147 7.47698 7.8958 7.47698 7.5346C7.47698 7.29846 7.44824 7.06892 7.39775 6.84753L10.1522 5.84392ZM2.03948 7.5346C2.03948 6.24941 3.08465 5.20424 4.36984 5.20424C5.65503 5.20424 6.7002 6.24941 6.7002 7.5346C6.7002 8.81979 5.65503 9.86496 4.36984 9.86496C3.08465 9.86496 2.03948 8.81979 2.03948 7.5346ZM6.27879 9.98108C6.53901 9.77757 6.76739 9.53521 6.95187 9.26023L8.74508 10.1566L7.51349 12.0586L6.27879 9.98108Z" fill="#555555" stroke="#555555" stroke-width="0.3"/>
</svg>
