<svg width="20" height="20" viewBox="0 0 20 20" fill="none" xmlns="http://www.w3.org/2000/svg">
<path d="M15 11.25C14.2583 11.25 13.5333 11.47 12.9166 11.882C12.2999 12.2941 11.8193 12.8797 11.5355 13.5649C11.2517 14.2501 11.1773 15.0042 11.322 15.7317C11.4667 16.4591 11.8239 17.1272 12.3483 17.6517C12.8728 18.1761 13.5409 18.5333 14.2684 18.678C14.9958 18.8227 15.7499 18.7483 16.4351 18.4645C17.1203 18.1807 17.7059 17.7001 18.118 17.0834C18.5301 16.4668 18.75 15.7417 18.75 15C18.75 14.0054 18.3549 13.0516 17.6517 12.3483C16.9484 11.6451 15.9946 11.25 15 11.25ZM16.6376 17.5L15 16.25L13.375 17.5L14 15.5875L12.5 14.55H14.3375L15 12.5L15.6751 14.55H17.5L16.0001 15.5875L16.6376 17.5Z" fill="white"/>
<path fill-rule="evenodd" clip-rule="evenodd" d="M13.9635 10.1059C12.3135 10.4489 10.9711 11.5961 10.3587 13.125H8.01083V15.8765C8.01083 15.9779 8.0465 16.064 8.1236 16.1408C8.20073 16.2177 8.28759 16.2536 8.39007 16.2536H10.1561C10.2671 16.6891 10.4347 17.1011 10.6507 17.4814C10.5683 17.4938 10.4839 17.5 10.3978 17.5H8.39007C8.16529 17.5 7.95279 17.4579 7.75382 17.373C7.55705 17.2889 7.38442 17.1735 7.23701 17.0266C7.0896 16.8798 6.97368 16.7077 6.88927 16.5114C6.80389 16.3129 6.76158 16.1009 6.76158 15.8765V13.8761C6.76158 13.2775 6.64715 12.7244 6.41941 12.2151C6.19603 11.7042 5.8729 11.2394 5.44941 10.8226C4.90585 10.2863 4.4862 9.68754 4.19201 9.02667C3.89695 8.36384 3.75 7.64591 3.75 6.87441C3.75 6.3583 3.81677 5.86002 3.9506 5.37996C4.0841 4.90111 4.27384 4.45357 4.51993 4.03773C4.76572 3.61721 5.05972 3.23639 5.40183 2.89551C5.74379 2.55478 6.12323 2.26192 6.53994 2.01705C6.96224 1.77205 7.41433 1.58275 7.89472 1.44979C8.37632 1.3165 8.87618 1.25 9.39393 1.25C9.91168 1.25 10.4115 1.3165 10.8931 1.44979C11.3735 1.58275 11.8225 1.77174 12.2398 2.01688C12.6617 2.26173 13.0439 2.55463 13.386 2.89551C13.7281 3.23638 14.0221 3.6172 14.2679 4.03771C14.514 4.45356 14.7038 4.9011 14.8373 5.37996C14.9711 5.86002 15.0379 6.3583 15.0379 6.87441C15.0379 7.64591 14.8909 8.36384 14.5958 9.02667C14.4265 9.40702 14.2157 9.7668 13.9635 10.1059Z" fill="white"/>
</svg>
