<svg width="71" height="78" viewBox="0 0 71 78" fill="none" xmlns="http://www.w3.org/2000/svg">
<g filter="url(#filter0_d_529_18120)">
<path d="M26.3981 32.821C26.9677 32.5281 27.6432 32.5258 28.2149 32.8148L37.2704 37.3925C38.734 38.1324 38.734 40.2224 37.2704 40.9623L28.2149 45.5401C27.6432 45.8291 26.9677 45.8268 26.3981 45.5339L17.4947 40.9561C16.0474 40.2119 16.0474 38.1429 17.4947 37.3988L26.3981 32.821Z" fill="black" fill-opacity="0.01"/>
</g>
<path d="M26.5098 23.3928C26.9717 23.1249 27.5413 23.1228 28.0052 23.3873L43.5419 32.2458C44.5512 32.8213 44.5512 34.2764 43.5419 34.8519L28.0052 43.7104C27.5413 43.975 26.9717 43.9729 26.5098 43.705L11.2342 34.8465C10.2376 34.2685 10.2376 32.8293 11.2342 32.2513L26.5098 23.3928Z" stroke="#444A58" stroke-linecap="round" stroke-linejoin="round"/>
<path d="M14.0354 21.2869C14.0354 18.4327 15.556 15.7948 18.0258 14.3643L23.2775 11.3224C25.7576 9.88592 28.8167 9.88592 31.2968 11.3224L36.5485 14.3643C39.0183 15.7948 40.5389 18.4327 40.5389 21.2869V27.4151C40.5389 30.2693 39.0183 32.9073 36.5485 34.3378L31.2968 37.3796C28.8167 38.8161 25.7576 38.8161 23.2775 37.3796L18.0258 34.3378C15.556 32.9073 14.0354 30.2693 14.0354 27.4151V21.2869Z" fill="#5565E8"/>
<path d="M27.156 31.893C27.156 26.7893 30.0784 22.1362 34.6759 19.92L35.3475 19.5963C37.7508 18.4377 40.5389 20.1889 40.5389 22.8568V27.5569C40.5389 30.4043 39.0255 33.0371 36.5649 34.4701L33.169 36.4477C30.5024 38.0007 27.156 36.077 27.156 32.9911L27.156 31.893Z" fill="#3390E6"/>
<path d="M14.0354 22.6052C14.0354 19.9341 16.8349 18.1874 19.2341 19.3616C24.1882 21.7862 27.3292 26.8204 27.3292 32.336V36.7536C27.3292 36.7536 27.3407 37.7827 27.5762 38.129C27.778 38.4259 27.9628 38.518 28.2056 38.6527C28.4483 38.7874 28.9928 38.9151 28.9928 38.9151C27.9585 39.4585 26.7167 39.4283 25.7101 38.8351L17.974 34.2766C15.5335 32.8384 14.0354 30.2169 14.0354 27.3842V22.6052Z" fill="#86CFF9"/>
<defs>
<filter id="filter0_d_529_18120" x="-15.5908" y="0.599609" width="85.959" height="77.1556" filterUnits="userSpaceOnUse" color-interpolation-filters="sRGB">
<feFlood flood-opacity="0" result="BackgroundImageFix"/>
<feColorMatrix in="SourceAlpha" type="matrix" values="0 0 0 0 0 0 0 0 0 0 0 0 0 0 0 0 0 0 127 0" result="hardAlpha"/>
<feOffset/>
<feGaussianBlur stdDeviation="16"/>
<feColorMatrix type="matrix" values="0 0 0 0 0.207843 0 0 0 0 0.407843 0 0 0 0 0.831373 0 0 0 0.4 0"/>
<feBlend mode="normal" in2="BackgroundImageFix" result="effect1_dropShadow_529_18120"/>
<feBlend mode="normal" in="SourceGraphic" in2="effect1_dropShadow_529_18120" result="shape"/>
</filter>
</defs>
</svg>
