<svg width="24" height="24" viewBox="0 0 24 24" fill="none" xmlns="http://www.w3.org/2000/svg">
<mask id="path-1-inside-1_636_28060" fill="white">
<path fill-rule="evenodd" clip-rule="evenodd" d="M19.9992 7H9.33203V9.5H4V17H14.6672V14.5H19.9992V7Z"/>
</mask>
<path d="M9.33203 7V5.5H7.83203V7H9.33203ZM19.9992 7H21.4992V5.5H19.9992V7ZM9.33203 9.5V11H10.832V9.5H9.33203ZM4 9.5V8H2.5V9.5H4ZM4 17H2.5V18.5H4V17ZM14.6672 17V18.5H16.1672V17H14.6672ZM14.6672 14.5V13H13.1672V14.5H14.6672ZM19.9992 14.5V16H21.4992V14.5H19.9992ZM9.33203 8.5H19.9992V5.5H9.33203V8.5ZM10.832 9.5V7H7.83203V9.5H10.832ZM4 11H9.33203V8H4V11ZM5.5 17V9.5H2.5V17H5.5ZM14.6672 15.5H4V18.5H14.6672V15.5ZM13.1672 14.5V17H16.1672V14.5H13.1672ZM19.9992 13H14.6672V16H19.9992V13ZM18.4992 7V14.5H21.4992V7H18.4992Z" fill="#333333" mask="url(#path-1-inside-1_636_28060)"/>
</svg>
