<svg width="20" height="20" viewBox="0 0 20 20" fill="none" xmlns="http://www.w3.org/2000/svg">
<path fill-rule="evenodd" clip-rule="evenodd" d="M1.875 2.5H18.125L18.75 3.125V10.0038C18.3615 9.71205 17.9418 9.46767 17.5 9.27443V3.75H2.5V15H8.75C8.75 15.4074 8.78984 15.8158 8.87009 16.2193C9.05332 17.1405 9.44096 18.0046 10 18.75H5V17.5C7.5 17.5 7.5 16.75 7.5 16.25H1.875L1.25 15.625V3.125L1.875 2.5ZM9 13.25C8.92803 13.4967 8.87149 13.7472 8.83052 14H7V13H9V13.25Z" fill="white"/>
<path fill-rule="evenodd" clip-rule="evenodd" d="M12.2222 10.8427C13.0444 10.2932 14.0111 10 15 10C16.3256 10.0016 17.5964 10.5289 18.5337 11.4663C19.4711 12.4036 19.9984 13.6744 20 15C20 15.9889 19.7068 16.9556 19.1573 17.7778C18.6079 18.6001 17.827 19.241 16.9134 19.6194C15.9998 19.9978 14.9945 20.0969 14.0246 19.9039C13.0546 19.711 12.1637 19.2348 11.4645 18.5355C10.7652 17.8363 10.289 16.9454 10.0961 15.9755C9.90315 15.0055 10.0022 14.0002 10.3806 13.0866C10.759 12.173 11.3999 11.3921 12.2222 10.8427ZM14.7859 17.0046L17.7688 13.0273L16.9688 12.4273L14.2954 15.9919L12.5675 14.6096L11.9428 15.3905L14.0735 17.095L14.7859 17.0046Z" fill="#388A34"/>
</svg>
