<svg width="51" height="57" viewBox="0 0 51 57" fill="none" xmlns="http://www.w3.org/2000/svg">
<path d="M46.5796 56.3343H12.2053C11.0645 56.3341 9.97056 55.8808 9.16398 55.0742C8.35741 54.2675 7.9043 53.1735 7.9043 52.0327V4.45466C7.9043 3.31392 8.35741 2.2199 9.16398 1.41322C9.97056 0.606544 11.0645 0.153285 12.2053 0.153137H34.0071L50.8828 17.547V52.0327C50.8828 52.5978 50.7715 53.1572 50.5552 53.6792C50.3389 54.2012 50.0219 54.6755 49.6223 55.075C49.2227 55.4744 48.7483 55.7912 48.2262 56.0073C47.7041 56.2234 47.1446 56.3345 46.5796 56.3343Z" fill="#EBEFEE"/>
<path d="M34.0049 0.150757V13.5423C34.0049 14.6031 34.4262 15.6205 35.1763 16.3708C35.9263 17.121 36.9436 17.5426 38.0044 17.5429H50.8806L34.0049 0.150757Z" fill="#F5F5F5"/>
<path d="M34.1803 14.7172C34.1803 14.7172 34.0132 17.9652 37.7086 19.0327C37.8477 19.0719 37.9889 19.1037 38.1314 19.1279C39.8128 19.4288 50.8806 21.3977 50.8806 21.143V17.5446H38.0044C38.0044 17.5446 34.7898 17.4349 34.1803 14.7172Z" fill="#E0E0E0"/>
<path d="M46.5799 56.3341C46.5799 56.3141 46.8373 56.3397 47.3226 56.2466C48.0389 56.1135 48.7098 55.8009 49.2725 55.338C49.7243 54.9655 50.0944 54.5037 50.3595 53.9815C50.6245 53.4593 50.7789 52.888 50.8129 52.3033C50.8347 50.9161 50.8096 49.3066 50.8129 47.5121C50.8007 40.308 50.7828 30.0002 50.7617 17.5474L50.7957 17.6321L33.9066 0.249933L34.0063 0.292276L21.4265 0.296731H14.8458H13.1744C12.6233 0.275761 12.0713 0.296057 11.5231 0.357453C10.4358 0.538701 9.46491 1.14428 8.82389 2.04107C8.37777 2.66199 8.11417 3.39529 8.06286 4.15813C8.03221 4.92083 8.05394 5.71806 8.04726 6.49191C8.04726 8.04887 8.04726 9.59581 8.04726 11.1327C8.04726 14.2047 8.04726 17.2293 8.04726 20.2065C8.04447 26.1555 8.04169 31.8932 8.0389 37.3597C8.03667 40.0929 8.03463 42.7556 8.03277 45.3477C8.03277 46.6425 8.03166 47.9181 8.02943 49.1746C8.02943 49.8026 8.02943 50.4255 8.02943 51.0431C7.99997 51.6476 8.02645 52.2536 8.10854 52.8532C8.22364 53.4244 8.45647 53.9654 8.79219 54.4416C9.12791 54.9179 9.55916 55.319 10.0585 55.6193C10.5435 55.9126 11.0835 56.1033 11.6451 56.1798C12.2078 56.2246 12.7724 56.2395 13.3366 56.2244L19.8253 56.2338L39.4064 56.2801L44.7303 56.3074L46.1147 56.3213C46.4267 56.3263 46.5866 56.3363 46.5866 56.3363C46.5866 56.3363 46.4267 56.3464 46.1147 56.3514L44.7303 56.3653L39.4064 56.3926L19.8253 56.4388L13.3366 56.4483C12.7622 56.4651 12.1873 56.4509 11.6145 56.406C10.7041 56.2827 9.85472 55.8788 9.18446 55.2504C8.5142 54.6221 8.05635 53.8006 7.87455 52.9C7.78813 52.2851 7.75885 51.6635 7.78708 51.0431C7.78708 50.4251 7.78708 49.8022 7.78708 49.1746C7.78708 47.9181 7.78578 46.6425 7.78318 45.3477C7.78318 42.7582 7.78114 40.0955 7.77705 37.3597C7.77705 31.8932 7.77148 26.1555 7.7687 20.2065C7.7687 17.2319 7.7687 14.2073 7.7687 11.1327C7.7687 9.59655 7.7687 8.04961 7.7687 6.49191C7.77594 5.70859 7.7531 4.94144 7.7843 4.13752C7.83999 3.32175 8.12205 2.53768 8.5988 1.87338C9.28474 0.914039 10.3236 0.266363 11.4869 0.0727638C12.0507 0.0080767 12.6185 -0.0135264 13.1856 0.00813931H14.8569H21.4376L34.0174 0.0120413H34.0765L34.1177 0.0538236L50.9656 17.4605L51.0001 17.4956V17.5446C50.979 29.9974 50.9611 40.3052 50.9489 47.5093C50.9377 49.3094 50.9522 50.9078 50.9188 52.3106C50.8799 52.9075 50.7176 53.4899 50.442 54.0208C50.1663 54.5517 49.7835 55.0196 49.3176 55.3948C48.7427 55.8593 48.0569 56.1665 47.3276 56.2862C47.1428 56.3194 46.9554 56.3364 46.7677 56.3369C46.6434 56.3369 46.5799 56.3341 46.5799 56.3341Z" fill="#E0E0E0"/>
<path d="M50.8806 17.5446C50.7719 17.5673 50.6608 17.577 50.5497 17.5735L49.6026 17.6008L46.115 17.6465L40.9422 17.6766H37.8836C37.024 17.651 36.1936 17.359 35.5073 16.8409C34.8209 16.3228 34.3125 15.6042 34.0522 14.7846C33.8946 14.2526 33.8309 13.6972 33.8639 13.1433C33.8667 12.0848 33.8695 11.063 33.8723 10.0881C33.8834 8.15041 33.894 6.39938 33.9029 4.91521C33.9224 3.47171 33.938 2.2895 33.9492 1.42708L33.9765 0.479974C33.9733 0.368888 33.9832 0.257817 34.006 0.149048C34.0284 0.257872 34.0381 0.368916 34.035 0.479974C34.0422 0.727893 34.0511 1.04211 34.0623 1.42708C34.0734 2.2895 34.089 3.47171 34.1085 4.91521C34.1174 6.39938 34.128 8.15041 34.1397 10.0881C34.1397 11.063 34.1447 12.0848 34.1481 13.1433C34.117 13.6681 34.1777 14.1943 34.3275 14.6982C34.5713 15.4602 35.0449 16.1282 35.6832 16.6105C36.3215 17.0928 37.0934 17.366 37.893 17.3925L40.9433 17.407L46.1161 17.4393L49.6037 17.4861L50.5508 17.5134C50.6616 17.5111 50.7722 17.5215 50.8806 17.5446Z" fill="#E0E0E0"/>
<path d="M33.3551 12.1004C33.3551 12.1807 29.2948 12.2453 24.2868 12.2453C19.2789 12.2453 15.218 12.1807 15.218 12.1004C15.218 12.0202 19.2778 11.955 24.2868 11.955C29.2959 11.955 33.3551 12.0202 33.3551 12.1004Z" fill="#AFAFAF"/>
<path d="M41.9598 18.7803C41.9598 18.8605 35.973 18.9257 28.5889 18.9257C21.2048 18.9257 15.218 18.8605 15.218 18.7803C15.218 18.7001 21.2037 18.6354 28.5889 18.6354C35.9741 18.6354 41.9598 18.7001 41.9598 18.7803Z" fill="#AFAFAF"/>
<path d="M41.9598 25.4607C41.9598 25.5404 35.973 25.6056 28.5889 25.6056C21.2048 25.6056 15.218 25.5404 15.218 25.4607C15.218 25.381 21.2037 25.3153 28.5889 25.3153C35.9741 25.3153 41.9598 25.3816 41.9598 25.4607Z" fill="#AFAFAF"/>
<path d="M41.9598 32.1406C41.9598 32.2208 35.973 32.286 28.5889 32.286C21.2048 32.286 15.218 32.2208 15.218 32.1406C15.218 32.0604 21.2037 31.9957 28.5889 31.9957C35.9741 31.9957 41.9598 32.0604 41.9598 32.1406Z" fill="#AFAFAF"/>
<path d="M41.9598 38.821C41.9598 38.9007 35.973 38.9659 28.5889 38.9659C21.2048 38.9659 15.218 38.9007 15.218 38.821C15.218 38.7413 21.2037 38.6756 28.5889 38.6756C35.9741 38.6756 41.9598 38.7408 41.9598 38.821Z" fill="#AFAFAF"/>
<path d="M41.9598 45.5009C41.9598 45.5811 35.973 45.6458 28.5889 45.6458C21.2048 45.6458 15.218 45.5811 15.218 45.5009C15.218 45.4207 21.2037 45.3561 28.5889 45.3561C35.9741 45.3561 41.9598 45.4207 41.9598 45.5009Z" fill="#AFAFAF"/>
<path d="M2.54601 33.9407H27.0398C27.6636 33.9407 28.2619 34.1885 28.703 34.6296C29.1441 35.0707 29.392 35.669 29.392 36.2928V44.7081C29.392 45.3318 29.1442 45.93 28.7032 46.371C28.2622 46.812 27.664 47.0597 27.0404 47.0597H2.54601C1.92227 47.0597 1.32408 46.812 0.882977 46.371C0.441877 45.93 0.193995 45.3319 0.193848 44.7081L0.193848 36.2928C0.193848 35.669 0.441664 35.0707 0.88278 34.6296C1.3239 34.1885 1.92218 33.9407 2.54601 33.9407V33.9407Z" fill="#003152"/>
<path d="M11.6261 40.0105C11.6261 41.1153 10.7971 41.8022 9.47286 41.8022H8.4745V43.1688H7.32739V38.2104H9.47286C10.7971 38.2121 11.6261 38.8991 11.6261 40.0105ZM10.4645 40.0105C10.4645 39.4656 10.1108 39.147 9.40935 39.147H8.4745V40.8696H9.40935C10.1108 40.8696 10.4629 40.5487 10.4629 40.0105H10.4645Z" fill="white"/>
<path d="M12.4392 38.2121H14.6911C16.3129 38.2121 17.4243 39.1893 17.4243 40.6907C17.4243 42.1922 16.3129 43.1688 14.6911 43.1688H12.4392V38.2121ZM14.6343 42.2267C14.8438 42.2393 15.0538 42.209 15.2511 42.1374C15.4485 42.0659 15.6292 41.9548 15.7821 41.8109C15.9349 41.667 16.0567 41.4933 16.14 41.3006C16.2232 41.1078 16.2661 40.9001 16.2661 40.6902C16.2661 40.4802 16.2232 40.2725 16.14 40.0798C16.0567 39.887 15.9349 39.7134 15.7821 39.5694C15.6292 39.4255 15.4485 39.3144 15.2511 39.2429C15.0538 39.1714 14.8438 39.141 14.6343 39.1536H13.5863V42.2267H14.6343Z" fill="white"/>
<path d="M19.4325 39.1325V40.4428H21.7267V41.3632H19.4325V43.1688H18.2854V38.2104H22.0315V39.1308L19.4325 39.1325Z" fill="white"/>
</svg>
