<svg width="24" height="24" viewBox="0 0 24 24" fill="none" xmlns="http://www.w3.org/2000/svg">
<path d="M5.61132 9.51918C5.91948 10.2038 6.76415 11.0428 7.62842 11.4928C8.9095 12.1598 10.2755 12.2146 11.8131 11.6389C15.1242 10.3991 18.6448 11.6322 20.2617 14.6265L20.2617 14.6265L20.386 14.8568L20.515 15.0957L20.2663 15.2046L19.6839 15.4595L19.5836 15.2305L19.6839 15.4595C19.6665 15.4671 19.6496 15.4745 19.633 15.4818C19.4976 15.5411 19.3901 15.5882 19.3062 15.6223C19.2179 15.6583 19.1315 15.6905 19.0553 15.7019C19.0138 15.7081 18.9599 15.7108 18.9018 15.6954C18.8386 15.6786 18.7879 15.6451 18.7494 15.6045C18.7153 15.5683 18.6942 15.53 18.6821 15.5061C18.6725 15.4872 18.6625 15.4648 18.6552 15.4483C18.6536 15.4447 18.6521 15.4414 18.6508 15.4384L18.6507 15.4384C18.435 14.9591 18.0183 14.462 17.4905 14.0377C16.9641 13.6146 16.3433 13.277 15.7361 13.105C14.6007 12.7835 13.7027 12.8357 12.4341 13.3122C10.5313 14.0269 8.69747 13.979 6.98103 13.1567L6.98103 13.1567C5.7281 12.5564 4.65228 11.5334 3.99 10.3126L3.98999 10.3126L3.87572 10.1019L3.74605 9.86284L3.99517 9.75371L4.57785 9.49848C4.57785 9.49848 4.57786 9.49848 4.57786 9.49848C4.59523 9.49087 4.61218 9.48344 4.62871 9.47619C4.76414 9.41682 4.87176 9.36964 4.95561 9.33544C5.04398 9.2994 5.13036 9.26716 5.20666 9.25572C5.24815 9.2495 5.30205 9.24677 5.36019 9.26218C5.42338 9.27893 5.47413 9.3124 5.51259 9.35308C5.54676 9.38922 5.56782 9.42759 5.57994 9.45146C5.58957 9.47044 5.59954 9.4928 5.6069 9.50931C5.60851 9.51292 5.60999 9.51623 5.61132 9.51918ZM5.61132 9.51918L5.38335 9.6218M5.61132 9.51918L5.38335 9.6218M5.38335 9.6218C5.35932 9.56841 5.3445 9.53108 5.31701 9.51306C5.25461 9.47217 5.12694 9.53086 4.67817 9.72747L19.9362 15.0762L19.946 15.0943L20.166 14.9756L20.0658 14.7466L20.0469 14.7548L20.0417 14.7453C18.4883 11.8683 15.1031 10.674 11.9007 11.873C10.3054 12.4703 8.86474 12.4183 7.51297 11.7145C6.61116 11.245 5.71968 10.369 5.38335 9.6218Z" fill="#333333" stroke="#333333" stroke-width="0.5"/>
</svg>
