<svg width="24" height="24" viewBox="0 0 24 24" fill="none" xmlns="http://www.w3.org/2000/svg">
<path d="M17.3543 18.7512C17.6475 18.4126 17.8472 18.0043 17.9831 17.5774L19.8114 11.837C19.9364 11.4445 20.0172 11.032 19.9467 10.6262C19.8006 9.78517 19.3597 9.01667 18.6935 8.46802L14.249 4.80831C12.9402 3.73056 11.0598 3.73057 9.75099 4.80831L5.30654 8.46802C4.60905 9.04236 4.1586 9.85762 4.03472 10.7448C3.98866 11.0746 4.0416 11.408 4.12384 11.7308L5.42566 16.8402C5.65338 17.734 6.17608 18.5317 6.91549 19.0831C7.81658 19.755 8.31981 20 9.77778 20H13.7778C15.5234 20 16.2727 20 17.3543 18.7512Z" stroke="#28303F" stroke-width="1.5" stroke-linejoin="round"/>
</svg>
