<svg width="24" height="24" viewBox="0 0 24 24" fill="none" xmlns="http://www.w3.org/2000/svg">
<path d="M18.7517 16.5004L19.5017 17.2504" stroke="#333333" stroke-width="1.5" stroke-linecap="round" stroke-linejoin="round"/>
<circle cx="16.5017" cy="14.2504" r="2.25" stroke="#333333" stroke-width="1.5"/>
<path d="M20.2517 10.5004C20.2517 10.9146 19.9159 11.2504 19.5017 11.2504C19.0875 11.2504 18.7517 10.9146 18.7517 10.5004C18.7517 10.0862 19.0875 9.75043 19.5017 9.75043C19.9159 9.75043 20.2517 10.0862 20.2517 10.5004Z" fill="#333333"/>
<path d="M5.25098 10.5004C5.25098 10.9146 4.91519 11.2504 4.50098 11.2504C4.08676 11.2504 3.75098 10.9146 3.75098 10.5004C3.75098 10.0862 4.08676 9.75043 4.50098 9.75043C4.91519 9.75043 5.25098 10.0862 5.25098 10.5004Z" fill="#333333"/>
<path d="M20.2517 6.75024C20.2517 7.16446 19.9159 7.50024 19.5017 7.50024C19.0875 7.50024 18.7517 7.16446 18.7517 6.75024C18.7517 6.33603 19.0875 6.00024 19.5017 6.00024C19.9159 6.00024 20.2517 6.33603 20.2517 6.75024Z" fill="#333333"/>
<path d="M5.25098 6.75024C5.25098 7.16446 4.91519 7.50024 4.50098 7.50024C4.08676 7.50024 3.75098 7.16446 3.75098 6.75024C3.75098 6.33603 4.08676 6.00024 4.50098 6.00024C4.91519 6.00024 5.25098 6.33603 5.25098 6.75024Z" fill="#333333"/>
<path d="M16.501 6.75024C16.501 7.16446 16.1652 7.50024 15.751 7.50024C15.3368 7.50024 15.001 7.16446 15.001 6.75024C15.001 6.33603 15.3368 6.00024 15.751 6.00024C16.1652 6.00024 16.501 6.33603 16.501 6.75024Z" fill="#333333"/>
<path d="M12.7502 6.75024C12.7502 7.16446 12.4145 7.50024 12.0002 7.50024C11.586 7.50024 11.2502 7.16446 11.2502 6.75024C11.2502 6.33603 11.586 6.00024 12.0002 6.00024C12.4145 6.00024 12.7502 6.33603 12.7502 6.75024Z" fill="#333333"/>
<path d="M12.7502 17.2504C12.7502 17.6646 12.4145 18.0004 12.0002 18.0004C11.586 18.0004 11.2502 17.6646 11.2502 17.2504C11.2502 16.8362 11.586 16.5004 12.0002 16.5004C12.4145 16.5004 12.7502 16.8362 12.7502 17.2504Z" fill="#333333"/>
<path d="M9.00171 6.75024C9.00171 7.16446 8.66592 7.50024 8.25171 7.50024C7.8375 7.50024 7.50171 7.16446 7.50171 6.75024C7.50171 6.33603 7.8375 6.00024 8.25171 6.00024C8.66592 6.00024 9.00171 6.33603 9.00171 6.75024Z" fill="#333333"/>
<path d="M9.00171 17.2504C9.00171 17.6646 8.66592 18.0004 8.25171 18.0004C7.8375 18.0004 7.50171 17.6646 7.50171 17.2504C7.50171 16.8362 7.8375 16.5004 8.25171 16.5004C8.66592 16.5004 9.00171 16.8362 9.00171 17.2504Z" fill="#333333"/>
<path d="M5.25098 14.2501C5.25098 14.6643 4.91519 15.0001 4.50098 15.0001C4.08676 15.0001 3.75098 14.6643 3.75098 14.2501C3.75098 13.8358 4.08676 13.5001 4.50098 13.5001C4.91519 13.5001 5.25098 13.8358 5.25098 14.2501Z" fill="#333333"/>
<path d="M5.25098 17.2504C5.25098 17.6646 4.91519 18.0004 4.50098 18.0004C4.08676 18.0004 3.75098 17.6646 3.75098 17.2504C3.75098 16.8362 4.08676 16.5004 4.50098 16.5004C4.91519 16.5004 5.25098 16.8362 5.25098 17.2504Z" fill="#333333"/>
</svg>
