<svg width="18" height="18" viewBox="0 0 18 18" fill="none" xmlns="http://www.w3.org/2000/svg">
<path d="M9.84848 1H8.1515C7.21429 1 6.45453 1.71634 6.45453 2.6C6.45453 3.61121 5.37258 4.25411 4.48444 3.77064L4.39423 3.72153C3.58258 3.27971 2.54472 3.54191 2.07612 4.30717L1.22763 5.69281C0.759022 6.45808 1.03711 7.43663 1.84877 7.87846C2.73734 8.36215 2.73733 9.63785 1.84876 10.1215C1.03711 10.5634 0.759021 11.5419 1.22763 12.3072L2.07612 13.6928C2.54472 14.4581 3.58258 14.7203 4.39423 14.2785L4.48444 14.2294C5.37258 13.7459 6.45453 14.3888 6.45453 15.4C6.45453 16.2837 7.21429 17 8.1515 17H9.84848C10.7857 17 11.5455 16.2837 11.5455 15.4C11.5455 14.3888 12.6274 13.7459 13.5156 14.2294L13.6058 14.2785C14.4174 14.7203 15.4553 14.4581 15.9239 13.6928L16.7724 12.3072C17.241 11.5419 16.9629 10.5634 16.1512 10.1215C15.2627 9.63784 15.2627 8.36216 16.1512 7.87847C16.9629 7.43664 17.241 6.45809 16.7724 5.69283L15.9239 4.30719C15.4553 3.54192 14.4174 3.27972 13.6058 3.72154L13.5156 3.77065C12.6274 4.25412 11.5455 3.61122 11.5455 2.6C11.5455 1.71634 10.7857 1 9.84848 1Z" stroke="white" stroke-width="1.5" stroke-linejoin="round"/>
<circle cx="9" cy="9" r="3" stroke="white" stroke-width="1.5"/>
</svg>
