<svg width="24" height="24" viewBox="0 0 24 24" fill="none" xmlns="http://www.w3.org/2000/svg">
<path d="M10.5859 5.01693C11.2958 4.30703 12.2763 3.93861 13.2701 4.00838L16.6328 4.24446C18.3119 4.36234 19.6377 5.68814 19.7555 7.3672L19.9916 10.7299C20.0614 11.7237 19.693 12.7042 18.9831 13.4141L13.4141 18.9831C12.071 20.3261 9.90811 20.3407 8.58307 19.0157L4.9843 15.4169C3.65926 14.0919 3.67387 11.929 5.01692 10.5859L10.5859 5.01693Z" stroke="#333333" stroke-width="1.5" stroke-linejoin="round"/>
<path d="M16.4142 10.4142C15.6332 11.1953 14.3668 11.1953 13.5858 10.4142C12.8047 9.63316 12.8047 8.36683 13.5858 7.58579C14.3668 6.80474 15.6332 6.80474 16.4142 7.58579C17.1953 8.36683 17.1953 9.63316 16.4142 10.4142Z" stroke="#333333" stroke-width="1.5"/>
</svg>
