<svg width="58" height="58" viewBox="0 0 58 58" fill="none" xmlns="http://www.w3.org/2000/svg">
<path d="M7.24227 51.7837H26.4196C26.9868 51.7837 27.4462 51.3248 27.4462 50.7577C27.4462 50.1906 26.9868 49.7318 26.4196 49.7318H7.24227C4.38029 49.7318 2.05127 47.4034 2.05127 44.5408V7.24227C2.05127 4.37965 4.37965 2.05062 7.24227 2.05062H38.3251C41.1871 2.05062 43.5155 4.379 43.5155 7.24227V24.8659C43.5155 25.4317 43.9743 25.8912 44.5414 25.8912C45.1085 25.8912 45.5674 25.4317 45.5674 24.8659V7.24227C45.5667 3.24929 42.3181 0 38.3251 0H7.24227C3.24929 0 0 3.24929 0 7.24227V44.5408C0 48.535 3.24929 51.7837 7.24227 51.7837Z" fill="#003152"/>
<path d="M42.9865 27.9741C34.7092 27.9741 27.9741 34.7092 27.9741 42.9864C27.9741 51.2649 34.7092 58 42.9865 58C51.265 58 58.0001 51.2649 58.0001 42.9864C58.0001 34.7092 51.265 27.9741 42.9865 27.9741ZM42.9865 55.9481C35.8396 55.9481 30.026 50.1333 30.026 42.9864C30.026 35.8389 35.8396 30.026 42.9865 30.026C50.134 30.026 55.9482 35.8395 55.9482 42.9864C55.9482 50.1333 50.134 55.9481 42.9865 55.9481Z" fill="#003152"/>
<path d="M34.1909 12.4332H11.3763C10.8092 12.4332 10.3503 12.8921 10.3503 13.4592C10.3503 14.025 10.8092 14.4845 11.3763 14.4845H34.1903C34.7574 14.4845 35.2162 14.025 35.2162 13.4592C35.2162 12.8921 34.758 12.4332 34.1909 12.4332Z" fill="#003152"/>
<path d="M35.2162 24.3381C35.2162 23.771 34.7574 23.3115 34.1903 23.3115H11.3763C10.8092 23.3115 10.3503 23.771 10.3503 24.3381C10.3503 24.9039 10.8092 25.3634 11.3763 25.3634H34.1903C34.758 25.3627 35.2162 24.9039 35.2162 24.3381Z" fill="#003152"/>
<path d="M11.3763 34.191C10.8092 34.191 10.3503 34.6498 10.3503 35.2169C10.3503 35.784 10.8092 36.2429 11.3763 36.2429H24.8658C25.4329 36.2429 25.8918 35.784 25.8918 35.2169C25.8918 34.6498 25.4329 34.191 24.8658 34.191H11.3763Z" fill="#003152"/>
<path d="M43.7125 36.0444C43.7067 36.0399 43.7009 36.036 43.6951 36.0309C43.6526 35.9903 43.6062 35.951 43.5566 35.9168C43.5289 35.8988 43.4992 35.8859 43.4702 35.8711C43.4399 35.8543 43.4109 35.8356 43.3794 35.8234C43.3439 35.8092 43.3078 35.8008 43.2711 35.7892C43.2434 35.7808 43.217 35.7705 43.1873 35.7641C43.0552 35.7383 42.9179 35.7383 42.7858 35.7641C42.7562 35.7705 42.7298 35.7808 42.702 35.7892C42.6653 35.8008 42.6292 35.8086 42.5938 35.8234C42.5616 35.8363 42.5326 35.8543 42.5029 35.8711C42.4739 35.8859 42.4436 35.8988 42.4166 35.9168C42.3669 35.951 42.3205 35.9896 42.2774 36.0309C42.2716 36.036 42.2658 36.0399 42.2606 36.0444L36.0443 42.2607C35.6434 42.6609 35.6434 43.3112 36.0443 43.712C36.4445 44.1122 37.0947 44.1122 37.4949 43.712L41.9596 39.246V49.2027C41.9596 49.7692 42.4191 50.2293 42.9856 50.2293C43.5521 50.2293 44.0128 49.7692 44.0128 49.2027V39.246L48.4776 43.712C48.6786 43.9124 48.9409 44.0136 49.2026 44.0136C49.4648 44.0136 49.7278 43.9124 49.9282 43.712C50.329 43.3112 50.329 42.6609 49.9282 42.2607L43.7125 36.0444Z" fill="#003152"/>
</svg>
