<svg width="35" height="35" viewBox="0 0 35 35" fill="none" xmlns="http://www.w3.org/2000/svg">
<path d="M7.29167 20.4167C8.9025 20.4167 10.2083 19.1109 10.2083 17.5C10.2083 15.8892 8.9025 14.5834 7.29167 14.5834C5.68084 14.5834 4.375 15.8892 4.375 17.5C4.375 19.1109 5.68084 20.4167 7.29167 20.4167Z" fill="#555555" stroke="#555555" stroke-width="2"/>
<path d="M27.7083 10.2083C29.3191 10.2083 30.625 8.9025 30.625 7.29167C30.625 5.68084 29.3191 4.375 27.7083 4.375C26.0975 4.375 24.7916 5.68084 24.7916 7.29167C24.7916 8.9025 26.0975 10.2083 27.7083 10.2083Z" fill="#555555" stroke="#555555" stroke-width="2"/>
<path d="M27.7083 20.4167C29.3191 20.4167 30.625 19.1109 30.625 17.5C30.625 15.8892 29.3191 14.5834 27.7083 14.5834C26.0975 14.5834 24.7916 15.8892 24.7916 17.5C24.7916 19.1109 26.0975 20.4167 27.7083 20.4167Z" fill="#555555" stroke="#555555" stroke-width="2"/>
<path d="M27.7083 30.625C29.3191 30.625 30.625 29.3191 30.625 27.7083C30.625 26.0975 29.3191 24.7916 27.7083 24.7916C26.0975 24.7916 24.7916 26.0975 24.7916 27.7083C24.7916 29.3191 26.0975 30.625 27.7083 30.625Z" fill="#555555" stroke="#555555" stroke-width="2"/>
<path d="M24.7916 27.7083H16.0416V7.29163H24.7916" stroke="#555555" stroke-width="2" stroke-linecap="round" stroke-linejoin="round"/>
<path d="M10.2084 17.5H24.7917" stroke="#555555" stroke-width="2" stroke-linecap="round" stroke-linejoin="round"/>
</svg>
