<svg width="35" height="35" viewBox="0 0 35 35" fill="none" xmlns="http://www.w3.org/2000/svg">
<path d="M25.5208 11.6667C27.5344 11.6667 29.1667 10.0344 29.1667 8.02083C29.1667 6.0073 27.5344 4.375 25.5208 4.375C23.5073 4.375 21.875 6.0073 21.875 8.02083C21.875 10.0344 23.5073 11.6667 25.5208 11.6667Z" fill="#555555" stroke="#555555" stroke-width="2" stroke-linejoin="round"/>
<path d="M9.47921 21.1458C11.4927 21.1458 13.125 19.5135 13.125 17.5C13.125 15.4864 11.4927 13.8541 9.47921 13.8541C7.46569 13.8541 5.83337 15.4864 5.83337 17.5C5.83337 19.5135 7.46569 21.1458 9.47921 21.1458Z" fill="#555555" stroke="#555555" stroke-width="2" stroke-linejoin="round"/>
<path d="M21.8752 9.89807L12.6432 15.4914" stroke="#555555" stroke-width="2" stroke-linecap="round" stroke-linejoin="round"/>
<path d="M12.6427 19.3695L22.3701 25.1175" stroke="#555555" stroke-width="2" stroke-linecap="round" stroke-linejoin="round"/>
<path d="M25.5208 23.3334C27.5344 23.3334 29.1667 24.9657 29.1667 26.9792C29.1667 28.9927 27.5344 30.625 25.5208 30.625C23.5073 30.625 21.875 28.9927 21.875 26.9792C21.875 24.9657 23.5073 23.3334 25.5208 23.3334Z" fill="#555555" stroke="#555555" stroke-width="2" stroke-linejoin="round"/>
</svg>
