<svg width="35" height="35" viewBox="0 0 35 35" fill="none" xmlns="http://www.w3.org/2000/svg">
<path d="M17.4999 17.5V8.75M17.4999 17.5L9.84375 21.9203L17.4999 17.5ZM17.4999 17.5L25.1561 21.9203L17.4999 17.5Z" stroke="#555555" stroke-width="2" stroke-linecap="round" stroke-linejoin="round"/>
<path d="M10.2083 11.6667C10.2083 13.2775 8.90247 14.5833 7.29167 14.5833C5.68084 14.5833 4.375 13.2775 4.375 11.6667C4.375 10.0559 5.68084 8.75 7.29167 8.75C8.90247 8.75 10.2083 10.0559 10.2083 11.6667Z" fill="#555555" stroke="#555555" stroke-width="2" stroke-linecap="round" stroke-linejoin="round"/>
<path d="M10.2083 23.3333C10.2083 24.9441 8.90247 26.25 7.29167 26.25C5.68084 26.25 4.375 24.9441 4.375 23.3333C4.375 21.7225 5.68084 20.4166 7.29167 20.4166C8.90247 20.4166 10.2083 21.7225 10.2083 23.3333Z" fill="#555555" stroke="#555555" stroke-width="2" stroke-linecap="round" stroke-linejoin="round"/>
<path d="M20.4166 29.1667C20.4166 30.7775 19.1108 32.0833 17.5 32.0833C15.8892 32.0833 14.5833 30.7775 14.5833 29.1667C14.5833 27.5559 15.8892 26.25 17.5 26.25C19.1108 26.25 20.4166 27.5559 20.4166 29.1667Z" fill="#555555" stroke="#555555" stroke-width="2" stroke-linecap="round" stroke-linejoin="round"/>
<path d="M30.625 23.3333C30.625 24.9441 29.3192 26.25 27.7084 26.25C26.0976 26.25 24.7917 24.9441 24.7917 23.3333C24.7917 21.7225 26.0976 20.4166 27.7084 20.4166C29.3192 20.4166 30.625 21.7225 30.625 23.3333Z" fill="#555555" stroke="#555555" stroke-width="2" stroke-linecap="round" stroke-linejoin="round"/>
<path d="M30.625 11.6667C30.625 13.2775 29.3192 14.5833 27.7084 14.5833C26.0976 14.5833 24.7917 13.2775 24.7917 11.6667C24.7917 10.0559 26.0976 8.75 27.7084 8.75C29.3192 8.75 30.625 10.0559 30.625 11.6667Z" fill="#555555" stroke="#555555" stroke-width="2" stroke-linecap="round" stroke-linejoin="round"/>
<path d="M20.4166 5.83329C20.4166 7.44409 19.1108 8.74996 17.5 8.74996C15.8892 8.74996 14.5833 7.44409 14.5833 5.83329C14.5833 4.22246 15.8892 2.91663 17.5 2.91663C19.1108 2.91663 20.4166 4.22246 20.4166 5.83329Z" fill="#555555" stroke="#555555" stroke-width="2" stroke-linecap="round" stroke-linejoin="round"/>
</svg>
