<svg width="35" height="35" viewBox="0 0 35 35" fill="none" xmlns="http://www.w3.org/2000/svg">
<path d="M16.0417 32.0833C17.6525 32.0833 18.9583 30.7775 18.9583 29.1667C18.9583 27.5558 17.6525 26.25 16.0417 26.25C14.4308 26.25 13.125 27.5558 13.125 29.1667C13.125 30.7775 14.4308 32.0833 16.0417 32.0833Z" fill="#555555" stroke="#555555" stroke-width="2"/>
<path d="M18.9583 8.74996C20.5691 8.74996 21.875 7.44412 21.875 5.83329C21.875 4.22246 20.5691 2.91663 18.9583 2.91663C17.3475 2.91663 16.0416 4.22246 16.0416 5.83329C16.0416 7.44412 17.3475 8.74996 18.9583 8.74996Z" fill="#555555" stroke="#555555" stroke-width="2"/>
<path d="M26.25 20.4167C27.8609 20.4167 29.1667 19.1109 29.1667 17.5C29.1667 15.8892 27.8609 14.5834 26.25 14.5834C24.6392 14.5834 23.3334 15.8892 23.3334 17.5C23.3334 19.1109 24.6392 20.4167 26.25 20.4167Z" fill="#555555" stroke="#555555" stroke-width="2"/>
<path d="M8.75004 20.4167C10.3609 20.4167 11.6667 19.1109 11.6667 17.5C11.6667 15.8892 10.3609 14.5834 8.75004 14.5834C7.13921 14.5834 5.83337 15.8892 5.83337 17.5C5.83337 19.1109 7.13921 20.4167 8.75004 20.4167Z" fill="#555555" stroke="#555555" stroke-width="2"/>
<path d="M23.3333 17.5H11.6666" stroke="#555555" stroke-width="2" stroke-linecap="round" stroke-linejoin="round"/>
<path d="M16.7708 8.02087L10.9375 15.3125" stroke="#555555" stroke-width="2" stroke-linecap="round" stroke-linejoin="round"/>
<path d="M24.0624 19.6875L18.2283 26.9792" stroke="#555555" stroke-width="2"/>
</svg>
