<svg width="35" height="35" viewBox="0 0 35 35" fill="none" xmlns="http://www.w3.org/2000/svg">
<path fill-rule="evenodd" clip-rule="evenodd" d="M26.25 8.74996C27.8608 8.74996 29.1666 7.44409 29.1666 5.83329C29.1666 4.22246 27.8608 2.91663 26.25 2.91663C24.6392 2.91663 23.3333 4.22246 23.3333 5.83329C23.3333 7.44409 24.6392 8.74996 26.25 8.74996Z" fill="#555555" stroke="#555555" stroke-width="2" stroke-linecap="round" stroke-linejoin="round"/>
<path fill-rule="evenodd" clip-rule="evenodd" d="M10.2084 8.74996C11.8192 8.74996 13.125 7.44409 13.125 5.83329C13.125 4.22246 11.8192 2.91663 10.2084 2.91663C8.59755 2.91663 7.29169 4.22246 7.29169 5.83329C7.29169 7.44409 8.59755 8.74996 10.2084 8.74996Z" fill="#555555" stroke="#555555" stroke-width="2" stroke-linecap="round" stroke-linejoin="round"/>
<path fill-rule="evenodd" clip-rule="evenodd" d="M10.2084 32.0833C11.8192 32.0833 13.125 30.7775 13.125 29.1667C13.125 27.5559 11.8192 26.25 10.2084 26.25C8.59755 26.25 7.29169 27.5559 7.29169 29.1667C7.29169 30.7775 8.59755 32.0833 10.2084 32.0833Z" fill="#555555" stroke="#555555" stroke-width="2" stroke-linecap="round" stroke-linejoin="round"/>
<path d="M10.2083 8.75V26.25V24.0625C10.2083 18.2292 26.25 17.5 26.25 11.6667V8.75" stroke="#555555" stroke-width="2" stroke-linecap="round" stroke-linejoin="round"/>
</svg>
