<svg width="28" height="24" viewBox="0 0 28 24" fill="none" xmlns="http://www.w3.org/2000/svg">
<path d="M13.985 0.971971C6.42204 0.971971 0.290039 5.04897 0.290039 10.078C0.290039 12.955 2.30304 15.518 5.43704 17.186C4.99104 18.666 4.10104 20.303 2.38104 21.752C2.38104 21.752 6.39704 21.486 9.23304 18.609C9.39604 18.649 9.56504 18.679 9.73004 18.715C9.56932 18.2507 9.48587 17.7632 9.48304 17.272C9.48304 13.879 13.259 11.222 18.083 11.222C21.546 11.222 24.461 12.598 25.833 14.628C27.001 13.288 27.68 11.735 27.68 10.075C27.68 5.04697 21.548 0.969971 13.985 0.969971V0.971971ZM25.68 17.274C25.68 14.484 22.28 12.221 18.08 12.221C13.885 12.221 10.482 14.485 10.482 17.275C10.482 20.065 13.885 22.328 18.082 22.328C19.01 22.328 19.895 22.212 20.718 22.008C22.291 23.606 24.518 23.753 24.518 23.753C23.565 22.949 23.072 22.04 22.824 21.219C24.562 20.294 25.68 18.871 25.68 17.274Z" fill="#DDDDDD"/>
</svg>
