<svg width="21" height="20" viewBox="0 0 21 20" fill="none" xmlns="http://www.w3.org/2000/svg">
<path d="M6.1875 5.90625C6.95 5.90625 7.68126 5.60335 8.22043 5.06418C8.7596 4.52501 9.0625 3.79375 9.0625 3.03125C9.0625 2.26875 8.7596 1.53748 8.22043 0.998318C7.68126 0.459151 6.95 0.15625 6.1875 0.15625C5.425 0.15625 4.69374 0.459151 4.15457 0.998318C3.6154 1.53748 3.3125 2.26875 3.3125 3.03125C3.3125 3.79375 3.6154 4.52501 4.15457 5.06418C4.69374 5.60335 5.425 5.90625 6.1875 5.90625ZM0.4375 9.14062C0.4375 8.66406 0.626813 8.20702 0.963793 7.87004C1.30077 7.53306 1.75781 7.34375 2.23438 7.34375H6.81641C6.63774 7.80193 6.54632 8.28947 6.54688 8.78125C6.54688 10.1181 7.21028 11.3005 8.22659 12.0156H6.54688C6.02127 12.0156 5.50571 12.1596 5.05623 12.432C4.60675 12.7045 4.24056 13.0949 3.99747 13.5609C2.62034 13.2066 1.73916 12.5173 1.19506 11.7353C0.4375 10.6464 0.4375 9.51869 0.4375 9.32031V9.14062ZM17.0025 13.5609C18.3797 13.2066 19.2608 12.5173 19.8049 11.7353C20.5625 10.6464 20.5625 9.51797 20.5625 9.32031V9.14062C20.5625 8.66406 20.3732 8.20702 20.0362 7.87004C19.6992 7.53306 19.2422 7.34375 18.7656 7.34375H14.1836C14.3575 7.78937 14.4531 8.27381 14.4531 8.78125C14.4531 10.1181 13.7897 11.3005 12.7734 12.0156H14.4531C14.9787 12.0156 15.4943 12.1596 15.9438 12.432C16.3933 12.7045 16.7594 13.0949 17.0025 13.5609ZM17.6875 3.03125C17.6875 3.79375 17.3846 4.52501 16.8454 5.06418C16.3063 5.60335 15.575 5.90625 14.8125 5.90625C14.05 5.90625 13.3187 5.60335 12.7796 5.06418C12.2404 4.52501 11.9375 3.79375 11.9375 3.03125C11.9375 2.26875 12.2404 1.53748 12.7796 0.998318C13.3187 0.459151 14.05 0.15625 14.8125 0.15625C15.575 0.15625 16.3063 0.459151 16.8454 0.998318C17.3846 1.53748 17.6875 2.26875 17.6875 3.03125ZM4.75 14.8906C4.75 14.4141 4.93931 13.957 5.27629 13.62C5.61327 13.2831 6.07031 13.0938 6.54688 13.0938H14.4531C14.6891 13.0938 14.9228 13.1402 15.1408 13.2305C15.3588 13.3208 15.5569 13.4532 15.7237 13.62C15.8906 13.7869 16.0229 13.985 16.1132 14.203C16.2035 14.421 16.25 14.6547 16.25 14.8906V15.0703C16.25 15.268 16.25 16.3964 15.4924 17.4853C14.7018 18.6217 13.1996 19.5625 10.5 19.5625C7.80109 19.5625 6.29819 18.6217 5.50756 17.4853C4.75 16.3964 4.75 15.2687 4.75 15.0703V14.8906ZM10.5 11.6562C11.2625 11.6562 11.9938 11.3533 12.5329 10.8142C13.0721 10.275 13.375 9.54375 13.375 8.78125C13.375 8.01875 13.0721 7.28749 12.5329 6.74832C11.9938 6.20915 11.2625 5.90625 10.5 5.90625C9.7375 5.90625 9.00624 6.20915 8.46707 6.74832C7.9279 7.28749 7.625 8.01875 7.625 8.78125C7.625 9.54375 7.9279 10.275 8.46707 10.8142C9.00624 11.3533 9.7375 11.6562 10.5 11.6562Z" fill="#36A3F7"/>
</svg>
