<svg width="20" height="20" viewBox="0 0 20 20" fill="none" xmlns="http://www.w3.org/2000/svg">
<path d="M8.77503 6.27478C8.65785 6.39182 8.49899 6.45756 8.33337 6.45756C8.16774 6.45756 8.00889 6.39182 7.8917 6.27478L7.2917 5.67478V14.1664C7.2917 14.3322 7.22585 14.4912 7.10864 14.6084C6.99143 14.7256 6.83246 14.7914 6.6667 14.7914C6.50094 14.7914 6.34197 14.7256 6.22476 14.6084C6.10755 14.4912 6.0417 14.3322 6.0417 14.1664V5.67478L5.4417 6.27478C5.38448 6.33618 5.31548 6.38543 5.23882 6.41959C5.16215 6.45375 5.07939 6.47212 4.99547 6.4736C4.91155 6.47508 4.82819 6.45965 4.75037 6.42821C4.67255 6.39678 4.60185 6.34999 4.5425 6.29064C4.48315 6.23129 4.43637 6.1606 4.40493 6.08277C4.3735 6.00495 4.35806 5.92159 4.35954 5.83767C4.36102 5.75375 4.37939 5.67099 4.41355 5.59433C4.44771 5.51766 4.49696 5.44866 4.55837 5.39144L6.22503 3.72478C6.34222 3.60773 6.50108 3.54199 6.6667 3.54199C6.83233 3.54199 6.99118 3.60773 7.10837 3.72478L8.77503 5.39144C8.89208 5.50863 8.95782 5.66748 8.95782 5.83311C8.95782 5.99873 8.89208 6.15759 8.77503 6.27478ZM12.7084 14.3248L12.1084 13.7248C12.0511 13.6634 11.9821 13.6141 11.9055 13.58C11.8288 13.5458 11.7461 13.5274 11.6621 13.5259C11.5782 13.5245 11.4949 13.5399 11.417 13.5713C11.3392 13.6028 11.2685 13.6496 11.2092 13.7089C11.1498 13.7683 11.103 13.839 11.0716 13.9168C11.0402 13.9946 11.0247 14.078 11.0262 14.1619C11.0277 14.2458 11.0461 14.3286 11.0802 14.4052C11.1144 14.4819 11.1636 14.5509 11.225 14.6081L12.8917 16.2748C13.0089 16.3918 13.1677 16.4576 13.3334 16.4576C13.499 16.4576 13.6578 16.3918 13.775 16.2748L15.4417 14.6081C15.5031 14.5509 15.5524 14.4819 15.5865 14.4052C15.6207 14.3286 15.639 14.2458 15.6405 14.1619C15.642 14.078 15.6266 13.9946 15.5951 13.9168C15.5637 13.839 15.5169 13.7683 15.4576 13.7089C15.3982 13.6496 15.3275 13.6028 15.2497 13.5713C15.1719 13.5399 15.0885 13.5245 15.0046 13.5259C14.9207 13.5274 14.8379 13.5458 14.7613 13.58C14.6846 13.6141 14.6156 13.6634 14.5584 13.7248L13.9584 14.3248V5.83311C13.9584 5.66735 13.8925 5.50838 13.7753 5.39117C13.6581 5.27396 13.4991 5.20811 13.3334 5.20811C13.1676 5.20811 13.0086 5.27396 12.8914 5.39117C12.7742 5.50838 12.7084 5.66735 12.7084 5.83311V14.3248Z" fill="#9A9A9A"/>
</svg>
